<svg width="39" height="30" viewBox="0 0 39 30" fill="none" xmlns="http://www.w3.org/2000/svg">
<path d="M33.1305 3.11249C30.7085 2.019 28.1113 1.21336 25.3958 0.751933C25.3464 0.743035 25.297 0.765281 25.2715 0.809804C24.9374 1.39437 24.5674 2.15698 24.3083 2.75639C21.3875 2.32613 18.4818 2.32613 15.6209 2.75639C15.3618 2.14365 14.9783 1.39437 14.6428 0.809804C14.6174 0.766769 14.5679 0.744523 14.5185 0.751933C11.8044 1.21189 9.20722 2.01752 6.78372 3.11249C6.76274 3.12139 6.74477 3.13624 6.73283 3.15553C1.80645 10.3974 0.45691 17.4613 1.11895 24.4376C1.12194 24.4718 1.14142 24.5044 1.16838 24.5252C4.41866 26.8739 7.56712 28.2997 10.6571 29.2448C10.7066 29.2597 10.759 29.2419 10.7904 29.2017C11.5214 28.2196 12.1729 27.1841 12.7316 26.0949C12.7646 26.0311 12.7331 25.9554 12.6657 25.9302C11.6322 25.5445 10.6481 25.0741 9.70149 24.5401C9.62661 24.497 9.62061 24.3917 9.6895 24.3412C9.8887 24.1943 10.088 24.0415 10.2782 23.8873C10.3126 23.8591 10.3605 23.8531 10.401 23.8708C16.6199 26.6647 23.3526 26.6647 29.4983 23.8708C29.5387 23.8516 29.5867 23.8575 29.6226 23.8857C29.8128 24.04 30.0121 24.1943 30.2127 24.3412C30.2816 24.3917 30.2772 24.497 30.2023 24.5401C29.2556 25.0846 28.2716 25.5445 27.2365 25.9288C27.1692 25.954 27.1392 26.0311 27.1721 26.0949C27.7429 27.1825 28.3944 28.2181 29.1118 29.2003C29.1418 29.2419 29.1958 29.2597 29.2452 29.2448C32.3501 28.2997 35.4985 26.8739 38.7488 24.5252C38.7773 24.5044 38.7953 24.4732 38.7984 24.4392C39.5907 16.3737 37.4712 9.36777 33.1799 3.157C33.1694 3.13624 33.1516 3.12139 33.1305 3.11249ZM13.6603 20.1899C11.788 20.1899 10.2452 18.4984 10.2452 16.4212C10.2452 14.344 11.758 12.6527 13.6603 12.6527C15.5775 12.6527 17.1053 14.3589 17.0753 16.4212C17.0753 18.4984 15.5625 20.1899 13.6603 20.1899ZM26.2869 20.1899C24.4147 20.1899 22.8719 18.4984 22.8719 16.4212C22.8719 14.344 24.3846 12.6527 26.2869 12.6527C28.2041 12.6527 29.7319 14.3589 29.7019 16.4212C29.7019 18.4984 28.2041 20.1899 26.2869 20.1899Z" fill="white"/>
</svg>
