<svg width="29" height="25" viewBox="0 0 29 25" fill="none" xmlns="http://www.w3.org/2000/svg">
<path d="M26.4377 1.02493C26.4377 1.02493 29.1088 -0.0166318 28.8862 2.51288C28.812 3.55446 28.1443 7.19992 27.6249 11.143L25.8441 22.8234C25.8441 22.8234 25.6957 24.5345 24.3601 24.8322C23.0245 25.1297 21.0212 23.7906 20.6502 23.493C20.3534 23.2698 15.0853 19.9219 13.2303 18.2852C12.7109 17.8388 12.1173 16.946 13.3045 15.9044L21.0954 8.46472C21.9858 7.57193 22.8762 5.48881 19.1662 8.01832L8.77842 15.0861C8.77842 15.0861 7.59125 15.83 5.36533 15.1605L0.542391 13.6725C0.542391 13.6725 -1.23838 12.5566 1.80377 11.4406C9.22365 7.94387 18.3501 4.37279 26.4377 1.02493Z" fill="white"/>
</svg>
