<svg width="37" height="31" viewBox="0 0 37 31" fill="none" xmlns="http://www.w3.org/2000/svg">
<path d="M11.9968 30.5745C25.2301 30.5745 32.4702 19.1513 32.4702 9.24808C32.4702 8.92694 32.4633 8.59866 32.4496 8.27752C33.858 7.21654 35.0735 5.90236 36.0388 4.39674C34.7271 5.00465 33.3345 5.40167 31.9084 5.57425C33.4099 4.63669 34.5342 3.16383 35.0728 1.4287C33.6603 2.30074 32.1154 2.91589 30.5046 3.24778C29.4193 2.0465 27.9843 1.25111 26.4215 0.984584C24.8586 0.718059 23.255 0.995241 21.8586 1.77328C20.4622 2.55131 19.3507 3.78686 18.696 5.28891C18.0413 6.79095 17.8798 8.47583 18.2366 10.083C15.3763 9.93352 12.5781 9.15954 10.0234 7.81126C7.46872 6.46298 5.21454 4.57051 3.40702 2.25653C2.48834 3.90643 2.20723 5.85881 2.62081 7.71686C3.03438 9.57491 4.11162 11.1992 5.63358 12.2596C4.49099 12.2219 3.37342 11.9014 2.37321 11.3248V11.4175C2.37219 13.149 2.94683 14.8274 3.99944 16.1674C5.05206 17.5074 6.51769 18.4264 8.1472 18.7681C7.08876 19.0697 5.97789 19.1137 4.90053 18.8965C5.36035 20.3856 6.25498 21.6879 7.45958 22.6219C8.66418 23.5558 10.1186 24.0747 11.62 24.1061C9.07115 26.1916 5.92263 27.3228 2.68151 27.3175C2.10672 27.3166 1.5325 27.2799 0.961914 27.2076C4.25455 29.408 8.08477 30.5767 11.9968 30.5745Z" fill="#EFEFEF"/>
</svg>
